<mxfile host="app.diagrams.net" modified="2023-09-15T01:35:10.813Z" agent="Mozilla/5.0 (Windows NT 10.0; Win64; x64) AppleWebKit/537.36 (KHTML, like Gecko) Chrome/116.0.0.0 Safari/537.36" version="21.6.1" etag="AhL1pt0wzYvCf5X-sow9" type="github">
  <diagram name="Page-1" id="mO3Ly4CNnSU18KFlSvJF">
    <mxGraphModel>
      <root>
        <mxCell id="0" />
        <mxCell id="1" parent="0" />
      </root>
    </mxGraphModel>
  </diagram>
</mxfile>
